Dual language
Primary Italian
Secondary English 
http://img175.imageshack.us/i/daredevildircut720pitae.png/
http://img5.imageshack.us/i/daredevildircut720pitae.png/
http://img171.imageshack.us/i/daredevildircut720pitae.png/



General
Complete name : Daredevil DirCut 720p Ita Eng.mkv
Format : Matroska
File size : 4.74 GiB
Duration : 2h 7mn
Overall bit rate : 5 319 Kbps
Movie name : Daredevil Director's Cut (2003)
Encoded date : UTC 2009-01-24 18:22:41
Writing application : mkvmerge v2.4.1 ('Use Me') built on Dec 5 2008 18:30:05
Writing library : libebml v0.7.7 + libmatroska v0.8.1

Video
ID : 1
Format : AVC
Format/Info : Advanced Video Codec
Format profile : High@L4.1
Format settings, CABAC : Yes
Format settings, ReFrames : 12 frames
Muxing mode : Container profile=Unknown@4.1
Codec ID : V_MPEG4/ISO/AVC
Duration : 2h 7mn
Bit rate : 4 011 Kbps
Nominal bit rate : 3 944 Kbps
Width : 1 280 pixels
Height : 540 pixels
Display aspect ratio : 2.35:1
Frame rate : 25.000 fps
Original frame rate : 23.976 fps
Resolution : 8 bits
Colorimetry : 4:2:0
Scan type : Progressive
Bits/(Pixel*Frame) : 0.232
Stream size : 3.58 GiB (75%)
Title : x264 @ 3944kbps

Audio #1
ID : 2
Format : DTS
Format/Info : Digital Theater Systems
Codec ID : A_DTS
Duration : 2h 7mn
Bit rate mode : Constant
Bit rate : 754 Kbps
Channel(s) : 6 channels
Channel positions : Front: L C R, Surround: L R, LFE
Sampling rate : 48.0 KHz
Resolution : 16 bits
Stream size : 689 MiB (14%)
Title : DTS 5.1 @ 768kbps
Language : Italian

Audio #2
ID : 7
Format : AC-3
Format/Info : Audio Coding 3
Codec ID : A_AC3
Duration : 2h 7mn
Bit rate mode : Constant
Bit rate : 448 Kbps
Channel(s) : 6 channels
Channel positions : Front: L C R, Surround: L R, LFE
Sampling rate : 48.0 KHz
Stream size : 409 MiB (8%)
Title : AC3 448Kbps
Language : English

Text #1
ID : 4
Format : ASS
Codec ID : S_TEXT/ASS
Codec ID/Info : Advanced Sub Station Alpha
Language : English

Text #2
ID : 5
Format : ASS
Codec ID : S_TEXT/ASS
Codec ID/Info : Advanced Sub Station Alpha
Language : Danish

Text #3
ID : 6
Format : ASS
Codec ID : S_TEXT/ASS
Codec ID/Info : Advanced Sub Station Alpha
Language : Polish

